<svg xmlns="http://www.w3.org/2000/svg" viewBox="0 0 1200 900" role="img" aria-label="Wonder Ops illustration">
  <rect width="1200" height="900" fill="#ffffff"/>
  <g fill="none" stroke="#d9dee7" stroke-width="2">
    <path d="M170 210H1030"/>
    <path d="M170 310H1030"/>
    <path d="M170 410H1030"/>
    <path d="M170 510H1030"/>
    <path d="M170 610H1030"/>
  </g>
  <g fill="#f5f7fb" stroke="#2e3542" stroke-width="3">
    <rect x="220" y="170" width="300" height="170" rx="18"/>
    <rect x="570" y="220" width="240" height="130" rx="18"/>
    <rect x="860" y="180" width="160" height="220" rx="18"/>
    <rect x="380" y="480" width="200" height="120" rx="18"/>
    <rect x="650" y="470" width="260" height="150" rx="18"/>
  </g>
  <g fill="none" stroke="#4f86f7" stroke-width="7" stroke-linecap="round">
    <path d="M300 410h240l90 60h170l100-80"/>
    <path d="M540 430v110"/>
    <path d="M850 340v120"/>
  </g>
  <g fill="#4f86f7">
    <circle cx="300" cy="410" r="12"/>
    <circle cx="540" cy="430" r="12"/>
    <circle cx="630" cy="490" r="12"/>
    <circle cx="800" cy="490" r="12"/>
    <circle cx="950" cy="410" r="12"/>
  </g>
</svg>
