<svg xmlns="http://www.w3.org/2000/svg" viewBox="0 0 1400 980" role="img" aria-label="PC용 제품 소개 카드 섹션 예시">
  <defs>
    <linearGradient id="bgGlow" x1="0" y1="0" x2="1" y2="1">
      <stop offset="0%" stop-color="#f8fbff"/>
      <stop offset="100%" stop-color="#ffffff"/>
    </linearGradient>
    <linearGradient id="heroWave" x1="0" y1="0" x2="1" y2="0">
      <stop offset="0%" stop-color="#e8f4ec" stop-opacity="0.9"/>
      <stop offset="45%" stop-color="#dceeff" stop-opacity="0.8"/>
      <stop offset="100%" stop-color="#fcecf3" stop-opacity="0.75"/>
    </linearGradient>
    <filter id="softShadow" x="-20%" y="-20%" width="140%" height="140%">
      <feDropShadow dx="0" dy="10" stdDeviation="18" flood-color="#0f172a" flood-opacity="0.08"/>
    </filter>
    <style>
      .title { font: 700 40px "Space Grotesk", "Noto Sans KR", sans-serif; fill: #111111; }
      .subtitle { font: 400 18px "Noto Sans KR", sans-serif; fill: #3e202a; }
      .eyebrow { font: 700 12px "Space Grotesk", sans-serif; letter-spacing: .14em; fill: #7a8088; }
      .cardTag { font: 700 12px "Space Grotesk", sans-serif; letter-spacing: .12em; }
      .cardTitle { font: 700 29px "Noto Sans KR", sans-serif; fill: #111111; }
      .cardSub { font: 400 15px "Noto Sans KR", sans-serif; fill: #3e202a; }
      .btn { font: 700 14px "Noto Sans KR", sans-serif; fill: #111111; }
      .small { font: 400 12px "Noto Sans KR", sans-serif; fill: #5c6270; }
    </style>
  </defs>

  <rect width="1400" height="980" fill="url(#bgGlow)"/>
  <path d="M0,92 C180,18 368,18 520,80 C696,151 846,146 1022,74 C1160,16 1280,10 1400,58 L1400,0 L0,0 Z" fill="url(#heroWave)"/>
  <path d="M0,936 C180,870 358,878 534,920 C702,958 870,954 1032,912 C1168,875 1280,868 1400,900 L1400,980 L0,980 Z" fill="#f6f7fb"/>

  <text x="80" y="84" class="eyebrow">INDEX / CORE SERVICES</text>
  <text x="80" y="140" class="title">KCGsoft 핵심 서비스 라인업</text>
  <text x="80" y="176" class="subtitle">운영 흐름과 현장 데이터를 하나의 시스템 안에서 읽히도록 정리한 카드형 소개 섹션입니다.</text>

  <g filter="url(#softShadow)">
    <rect x="80" y="230" width="392" height="268" rx="18" fill="#ffffff" stroke="#dfe4ec"/>
    <rect x="504" y="230" width="392" height="268" rx="18" fill="#ffffff" stroke="#dfe4ec"/>
    <rect x="928" y="230" width="392" height="268" rx="18" fill="#ffffff" stroke="#dfe4ec"/>

    <rect x="80" y="530" width="580" height="272" rx="18" fill="#ffffff" stroke="#dfe4ec"/>
    <rect x="744" y="530" width="576" height="272" rx="18" fill="#ffffff" stroke="#dfe4ec"/>
  </g>

  <!-- Card 1 -->
  <text x="108" y="269" class="cardTag" fill="#32b154">WONDER SHUTTLE</text>
  <text x="108" y="318" class="cardTitle">버스 통합 관제 서비스</text>
  <text x="108" y="348" class="cardSub">실시간 위치 확인</text>
  <text x="108" y="370" class="cardSub">노선 관리와 탑승 관리</text>
  <text x="108" y="392" class="cardSub">배차·통계까지 연결</text>
  <g transform="translate(196 400)">
    <rect x="0" y="0" width="166" height="54" rx="10" fill="#e9f8ee" stroke="#bde6c9"/>
    <rect x="34" y="18" width="98" height="18" rx="9" fill="#32b154"/>
    <rect x="48" y="9" width="38" height="20" rx="4" fill="#ffffff" opacity=".86"/>
    <circle cx="50" cy="46" r="8" fill="#111111"/>
    <circle cx="120" cy="46" r="8" fill="#111111"/>
    <circle cx="50" cy="46" r="3.2" fill="#ffffff"/>
    <circle cx="120" cy="46" r="3.2" fill="#ffffff"/>
  </g>
  <rect x="108" y="444" width="104" height="34" rx="0" fill="#ffffff" stroke="#111111"/>
  <text x="124" y="466" class="btn">자세히 보기</text>

  <!-- Card 2 -->
  <text x="532" y="269" class="cardTag" fill="#2380f1">WONDER LINX</text>
  <text x="532" y="318" class="cardTitle">지능형 버스 노선 설계</text>
  <text x="532" y="348" class="cardSub">데이터를 기반한 노선 디자인</text>
  <text x="532" y="370" class="cardSub">최적 경로와 예상 운행시간 계산</text>
  <text x="532" y="392" class="cardSub">계획 변경에 빠르게 대응</text>
  <g transform="translate(682 386)">
    <path d="M0 36 C44 18, 80 18, 126 10" fill="none" stroke="#2380f1" stroke-width="3"/>
    <circle cx="6" cy="34" r="5" fill="#2380f1"/>
    <circle cx="54" cy="26" r="5" fill="#2380f1"/>
    <circle cx="100" cy="18" r="5" fill="#2380f1"/>
    <rect x="82" y="0" width="74" height="40" rx="8" fill="#ffffff" stroke="#bfd9ff"/>
    <rect x="110" y="-12" width="42" height="78" rx="10" transform="rotate(10 110 -12)" fill="#ffffff" stroke="#2380f1" stroke-width="3"/>
    <circle cx="10" cy="47" r="8" fill="#111111"/>
    <circle cx="108" cy="47" r="8" fill="#111111"/>
  </g>
  <rect x="532" y="444" width="104" height="34" rx="0" fill="#ffffff" stroke="#111111"/>
  <text x="548" y="466" class="btn">자세히 보기</text>

  <!-- Card 3 -->
  <text x="956" y="269" class="cardTag" fill="#1b3479">WONDER HYDRO</text>
  <text x="956" y="318" class="cardTitle">수소 충전 통합 관리</text>
  <text x="956" y="348" class="cardSub">충전 운영과 상태를 한눈에 확인</text>
  <text x="956" y="370" class="cardSub">이력 관리와 운영 추적을 연결</text>
  <text x="956" y="392" class="cardSub">현장 판단을 빠르게 정리</text>
  <g transform="translate(1088 376)">
    <rect x="0" y="18" width="170" height="46" rx="12" fill="#eef2ff" stroke="#c7d5ff"/>
    <rect x="18" y="10" width="34" height="54" rx="8" fill="#ffffff" stroke="#1b3479" stroke-width="2"/>
    <rect x="64" y="0" width="58" height="64" rx="10" fill="#ffffff" stroke="#1b3479" stroke-width="2"/>
    <rect x="130" y="18" width="34" height="46" rx="8" fill="#ffffff" stroke="#1b3479" stroke-width="2"/>
    <rect x="73" y="15" width="36" height="18" rx="4" fill="#1b3479" opacity=".9"/>
    <circle cx="24" cy="70" r="7" fill="#111111"/>
    <circle cx="144" cy="70" r="7" fill="#111111"/>
  </g>
  <rect x="956" y="444" width="104" height="34" rx="0" fill="#ffffff" stroke="#111111"/>
  <text x="972" y="466" class="btn">자세히 보기</text>

  <!-- Card 4 -->
  <text x="108" y="571" class="cardTag" fill="#efbb45">WONDER FMS</text>
  <text x="108" y="622" class="cardTitle">전세버스 ERP 통합 관리</text>
  <text x="108" y="652" class="cardSub">운영, 배차, 정산 흐름을 연결</text>
  <text x="108" y="674" class="cardSub">관리 데이터와 회계 흐름을 정리</text>
  <text x="108" y="696" class="cardSub">전세버스 업무를 하나로 묶음</text>
  <g transform="translate(364 606)">
    <rect x="0" y="30" width="150" height="50" rx="8" fill="#fff8de" stroke="#efbb45"/>
    <rect x="10" y="10" width="56" height="38" rx="8" fill="#ffffff" stroke="#efbb45" stroke-width="2"/>
    <rect x="86" y="4" width="54" height="44" rx="8" fill="#ffffff" stroke="#efbb45" stroke-width="2"/>
    <rect x="58" y="-4" width="48" height="70" rx="8" fill="#ffffff" stroke="#efbb45" stroke-width="2"/>
    <text x="68" y="36" text-anchor="middle" font-family="Space Grotesk, sans-serif" font-size="16" font-weight="700" fill="#efbb45">ERP</text>
    <circle cx="20" cy="84" r="7" fill="#111111"/>
    <circle cx="122" cy="84" r="7" fill="#111111"/>
  </g>
  <rect x="108" y="740" width="104" height="34" rx="0" fill="#ffffff" stroke="#111111"/>
  <text x="124" y="762" class="btn">자세히 보기</text>

  <!-- Card 5 -->
  <text x="772" y="571" class="cardTag" fill="#e7437b">CATCHLOC</text>
  <text x="772" y="622" class="cardTitle">GPS 위치 추적 솔루션</text>
  <text x="772" y="652" class="cardSub">차량과 자산의 위치를 실시간 확인</text>
  <text x="772" y="674" class="cardSub">이동 이력과 상태 기록을 관리</text>
  <text x="772" y="696" class="cardSub">현장 대응을 더 빠르게 정리</text>
  <g transform="translate(1010 606)">
    <rect x="0" y="8" width="188" height="72" rx="14" fill="#ffeef5" stroke="#f4bfd1"/>
    <rect x="12" y="30" width="60" height="30" rx="8" fill="#ffffff" stroke="#e7437b" stroke-width="2"/>
    <rect x="82" y="20" width="42" height="40" rx="8" fill="#ffffff" stroke="#e7437b" stroke-width="2"/>
    <rect x="132" y="28" width="42" height="32" rx="8" fill="#ffffff" stroke="#e7437b" stroke-width="2"/>
    <circle cx="38" cy="70" r="7" fill="#111111"/>
    <circle cx="148" cy="70" r="7" fill="#111111"/>
    <circle cx="108" cy="38" r="10" fill="#e7437b" opacity=".16"/>
    <path d="M108 24c7 0 12 5 12 12 0 10-12 22-12 22s-12-12-12-22c0-7 5-12 12-12z" fill="#e7437b"/>
    <circle cx="108" cy="36" r="4" fill="#ffffff"/>
  </g>
  <rect x="772" y="740" width="104" height="34" rx="0" fill="#ffffff" stroke="#111111"/>
  <text x="788" y="762" class="btn">자세히 보기</text>
</svg>
