<svg xmlns="http://www.w3.org/2000/svg" viewBox="0 0 1200 900" role="img" aria-label="Wonder Shuttle illustration">
  <rect width="1200" height="900" fill="#ffffff"/>
  <g fill="none" stroke="#d9dee7" stroke-width="2">
    <path d="M120 230H1080"/>
    <path d="M160 330H1040"/>
    <path d="M200 430H1000"/>
    <path d="M240 530H960"/>
    <path d="M280 630H920"/>
  </g>
  <g fill="none" stroke="#32b154" stroke-width="7" stroke-linecap="round" stroke-linejoin="round">
    <path d="M180 610c120-160 180-220 320-220s180 120 320 120 160-70 250-160"/>
    <path d="M140 670c120-100 220-130 350-130 150 0 210 70 340 70 110 0 180-35 250-95" opacity="0.35"/>
  </g>
  <g fill="#f5f7fb" stroke="#2e3542" stroke-width="3">
    <rect x="270" y="185" width="280" height="160" rx="20"/>
    <rect x="700" y="150" width="240" height="120" rx="20"/>
    <rect x="520" y="520" width="280" height="140" rx="22"/>
  </g>
  <g>
    <rect x="535" y="505" width="160" height="90" rx="26" fill="#1f2730"/>
    <rect x="560" y="525" width="110" height="46" rx="22" fill="#b8d9ff"/>
    <rect x="570" y="517" width="18" height="18" rx="6" fill="#ffffff"/>
    <rect x="648" y="517" width="18" height="18" rx="6" fill="#ffffff"/>
  </g>
  <g>
    <rect x="835" y="330" width="120" height="70" rx="20" fill="#1f2730"/>
    <rect x="850" y="345" width="86" height="36" rx="14" fill="#b8d9ff"/>
  </g>
  <g>
    <rect x="380" y="410" width="110" height="64" rx="18" fill="#1f2730"/>
    <rect x="395" y="423" width="78" height="32" rx="12" fill="#b8d9ff"/>
  </g>
  <g>
    <circle cx="180" cy="610" r="18" fill="#32b154" opacity="0.2"/>
    <circle cx="1040" cy="260" r="18" fill="#32b154" opacity="0.2"/>
    <circle cx="780" cy="420" r="18" fill="#32b154" opacity="0.2"/>
  </g>
</svg>
